# xmcd
# 
# Track frame offsets:
#	182
#	21002
#	38590
#
# Disc length: 878 seconds
#
# Revision: 1
# Processed by: cddbd v1.5.1PL0 Copyright (c) Steve Scherf et al.
# Submitted via: Audio-CD-Archiv 3.00.487
#
DISCID=16036c03
DTITLE=Viktor Lazlo - In The Midnight Sky
DYEAR=1900
DGENRE=blues
TTITLE0=In The Midnight Sky
TTITLE1=Tell Me 'Pourquoi Pas'
TTITLE2=Sweet Soft N' Lazy
EXTD=
EXTT0=
EXTT1=
EXTT2=
PLAYORDER=
